<svg width="113" height="125" viewBox="0 0 113 125" fill="none"
  xmlns="http://www.w3.org/2000/svg">
  <path d="M51.24 82.064C51.0693 77.456 50.8987 72.6347 50.728 67.6C50.6427 62.48 50.6 56.592 50.6 49.936C47.8693 50.0213 44.968 50.1067 41.896 50.192C38.824 50.192 35.6667 50.192 32.424 50.192C28.584 50.192 25.0853 50.192 21.928 50.192C18.7707 50.192 15.9547 50.1493 13.48 50.064C13.3947 55.44 13.3093 60.6453 13.224 65.68C13.1387 70.6293 12.968 76.048 12.712 81.936C12.6267 83.984 12.4133 85.5627 12.072 86.672C11.816 87.7813 11.432 88.6347 10.92 89.232C10.408 89.8293 9.81067 90.1707 9.128 90.256C8.53067 90.4267 7.80533 90.512 6.952 90.512C5.416 90.512 4.136 90 3.112 88.976C2.088 87.8667 1.49067 85.5627 1.32 82.064C1.14933 78.992 1.02133 75.792 0.936 72.464C0.936 69.136 0.893334 65.552 0.808001 61.712C0.722667 57.872 0.68 53.7333 0.68 49.296C0.68 44.7733 0.68 39.7387 0.68 34.192C0.68 28.1333 0.722667 22.9707 0.808001 18.704C0.893334 14.352 1.10667 10.8107 1.448 8.07999C1.87467 5.34933 2.51467 3.34399 3.368 2.064C4.22133 0.783997 5.416 0.143997 6.952 0.143997C8.40267 0.143997 9.68267 0.61333 10.792 1.55199C11.9013 2.49066 12.5413 4.66666 12.712 8.07999C12.8827 10.9813 13.0107 13.6267 13.096 16.016C13.1813 18.32 13.2667 20.624 13.352 22.928C13.4373 25.1467 13.48 27.4507 13.48 29.84C13.48 32.2293 13.48 34.8747 13.48 37.776C19.88 37.52 26.152 37.392 32.296 37.392C35.2827 37.392 38.2693 37.4347 41.256 37.52C44.328 37.6053 47.4427 37.7333 50.6 37.904V34.192C50.6 28.1333 50.6427 22.9707 50.728 18.704C50.8133 14.352 51.0267 10.8107 51.368 8.07999C51.7947 5.34933 52.4347 3.34399 53.288 2.064C54.1413 0.783997 55.336 0.143997 56.872 0.143997C58.3227 0.143997 59.6027 0.61333 60.712 1.55199C61.8213 2.49066 62.4613 4.66666 62.632 8.07999C62.8027 11.152 62.9307 13.8827 63.016 16.272C63.1013 18.6613 63.1867 21.0507 63.272 23.44C63.3573 25.744 63.4 28.176 63.4 30.736C63.4 33.2107 63.4 36.0267 63.4 39.184C63.4 43.024 63.4 46.6933 63.4 50.192C63.4 53.6907 63.3573 57.1467 63.272 60.56C63.1867 63.9733 63.1013 67.4293 63.016 70.928C62.9307 74.4267 62.8027 78.096 62.632 81.936C62.5467 83.984 62.3333 85.5627 61.992 86.672C61.736 87.7813 61.352 88.6347 60.84 89.232C60.328 89.8293 59.7307 90.1707 59.048 90.256C58.4507 90.4267 57.7253 90.512 56.872 90.512C55.336 90.512 54.056 90 53.032 88.976C52.008 87.8667 51.4107 85.5627 51.24 82.064Z" fill="white"/>
  <path d="M100.24 116.064C100.069 111.456 99.8987 106.635 99.728 101.6C99.6427 96.48 99.6 90.592 99.6 83.936C96.8693 84.0213 93.968 84.1067 90.896 84.192C87.824 84.192 84.6667 84.192 81.424 84.192C77.584 84.192 74.0853 84.192 70.928 84.192C67.7707 84.192 64.9547 84.1493 62.48 84.064C62.3947 89.44 62.3093 94.6453 62.224 99.68C62.1387 104.629 61.968 110.048 61.712 115.936C61.6267 117.984 61.4133 119.563 61.072 120.672C60.816 121.781 60.432 122.635 59.92 123.232C59.408 123.829 58.8107 124.171 58.128 124.256C57.5307 124.427 56.8053 124.512 55.952 124.512C54.416 124.512 53.136 124 52.112 122.976C51.088 121.867 50.4907 119.563 50.32 116.064C50.1493 112.992 50.0213 109.792 49.936 106.464C49.936 103.136 49.8933 99.552 49.808 95.712C49.7227 91.872 49.68 87.7333 49.68 83.296C49.68 78.7733 49.68 73.7387 49.68 68.192C49.68 62.1333 49.7227 56.9707 49.808 52.704C49.8933 48.352 50.1067 44.8107 50.448 42.08C50.8747 39.3493 51.5147 37.344 52.368 36.064C53.2213 34.784 54.416 34.144 55.952 34.144C57.4027 34.144 58.6827 34.6133 59.792 35.552C60.9013 36.4907 61.5413 38.6667 61.712 42.08C61.8827 44.9813 62.0107 47.6267 62.096 50.016C62.1813 52.32 62.2667 54.624 62.352 56.928C62.4373 59.1467 62.48 61.4507 62.48 63.84C62.48 66.2293 62.48 68.8747 62.48 71.776C68.88 71.52 75.152 71.392 81.296 71.392C84.2827 71.392 87.2693 71.4347 90.256 71.52C93.328 71.6053 96.4427 71.7333 99.6 71.904V68.192C99.6 62.1333 99.6427 56.9707 99.728 52.704C99.8133 48.352 100.027 44.8107 100.368 42.08C100.795 39.3493 101.435 37.344 102.288 36.064C103.141 34.784 104.336 34.144 105.872 34.144C107.323 34.144 108.603 34.6133 109.712 35.552C110.821 36.4907 111.461 38.6667 111.632 42.08C111.803 45.152 111.931 47.8827 112.016 50.272C112.101 52.6613 112.187 55.0507 112.272 57.44C112.357 59.744 112.4 62.176 112.4 64.736C112.4 67.2107 112.4 70.0267 112.4 73.184C112.4 77.024 112.4 80.6933 112.4 84.192C112.4 87.6907 112.357 91.1467 112.272 94.56C112.187 97.9733 112.101 101.429 112.016 104.928C111.931 108.427 111.803 112.096 111.632 115.936C111.547 117.984 111.333 119.563 110.992 120.672C110.736 121.781 110.352 122.635 109.84 123.232C109.328 123.829 108.731 124.171 108.048 124.256C107.451 124.427 106.725 124.512 105.872 124.512C104.336 124.512 103.056 124 102.032 122.976C101.008 121.867 100.411 119.563 100.24 116.064Z" fill="white"/>
</svg>

